<svg width="83" height="68" viewBox="0 0 83 68" fill="none" xmlns="http://www.w3.org/2000/svg">
<path d="M7.50316 65.9063C7.50316 64.4324 7.62945 62.8802 7.48264 61.4122C7.27759 59.3616 6.10216 57.4657 6.02563 55.3994C6.00798 54.9228 5.65625 50.2458 5.65625 52.0545C5.65625 53.7061 6.88721 54.0861 8.32401 54.0861C10.018 54.0861 14.763 53.9244 13.2491 57.0411C12.9356 57.6866 12.2636 58.0454 11.9358 58.6828C11.4483 59.6307 11.1577 60.6928 10.6224 61.6174C9.60629 63.3725 8.98069 60.3045 8.98069 59.6268" stroke="black" stroke-width="3" stroke-linecap="round"/>
<path d="M2.33203 52.6086C3.56953 48.9689 5.25613 45.4163 6.76462 41.8965C7.57905 39.9961 7.90798 38.3487 9.71968 37.0945C11.872 35.6044 15.3328 35.4846 17.8051 34.8782C23.7868 33.411 29.8252 32.3665 35.8638 31.1844C39.2309 30.5252 42.3894 29.3374 45.8371 29.3374C48.2417 29.3374 49.9287 29.7024 51.0905 32.0873C52.61 35.2062 52.108 39.3154 49.3667 41.5271C47.3459 43.1575 44.7035 43.9207 42.3895 45.0157C39.6134 46.3294 37.0521 48.0447 34.2631 49.3251C32.3817 50.189 30.0599 51.4725 27.9426 51.5004C24.4817 51.5459 21.3158 52.8191 17.8461 53.2652C16.3497 53.4576 14.4438 53.5616 12.962 53.2652C12.0609 53.085 11.7888 52.6086 10.8278 52.6086" stroke="black" stroke-width="3" stroke-linecap="round"/>
<path d="M22.6477 55.5636C23.1475 57.1255 22.2783 57.8874 22.2783 59.4421C22.2783 61.0758 24.8588 58.3395 25.2334 57.9441C26.2579 56.8626 27.4497 55.8233 27.4497 54.2502C27.4497 51.5357 24.8893 51.5425 23.7559 49.6535" stroke="black" stroke-width="3" stroke-linecap="round"/>
<path d="M39.27 49.6535C39.5593 53.4144 45.6946 53.4754 47.6837 51.131C48.5196 50.1459 48.9703 49.6061 48.874 48.258C48.707 45.9208 45.2648 46.6984 43.7026 46.6984" stroke="black" stroke-width="3" stroke-linecap="round"/>
<path d="M52.568 31.1844C48.2726 28.9472 42.4578 25.6416 47.7455 20.8827C49.5225 19.2834 52.2045 18.17 54.2302 16.8195C55.3049 16.103 57.54 15.3009 58.8475 15.3009C61.5536 15.3009 64.3677 14.9015 66.7892 16.0192C68.0251 16.5896 69.2833 17.7078 70.2163 18.7074C70.8452 19.3813 71.0964 20.3529 71.5707 21.1289C71.9066 21.6787 72.5017 21.8708 72.8019 22.4833C73.5327 23.974 73.2528 25.8265 73.828 27.4084C74.5867 29.4948 72.3176 30.6686 70.8729 31.5127C67.9809 33.2024 62.1466 37.1639 58.4781 35.3297C57.3854 34.7833 54.0155 31.1919 55.5231 30.815" stroke="black" stroke-width="3" stroke-linecap="round"/>
<path d="M70.2983 27.1212C73.3731 26.2101 77.0943 26.7518 80.2717 26.7518C82.6589 26.7518 79.346 29.7336 79.1635 31.1023C79.0524 31.9356 77.4366 35.29 76.2905 35.2476C74.4877 35.1808 71.6032 33.9667 70.2983 32.6619" stroke="black" stroke-width="3" stroke-linecap="round"/>
<path d="M64.7578 17.1478C63.1269 15.517 61.847 13.5698 60.1199 12.0586C58.6856 10.8035 58.3829 9.37239 57.8216 7.62596C57.384 6.26474 57.8531 5.18827 57.1649 3.85005C55.8418 1.27731 53.3006 1.63375 50.7212 1.63375C48.2246 1.63375 44.5086 1.87931 43.744 4.93768C43.1636 7.25907 44.6571 9.48077 46.2681 10.9709C48.2314 12.787 50.8794 13.9137 52.3629 16.2449C52.716 16.7997 52.3146 17.7932 52.9375 18.1739C53.8691 18.7432 55.2266 18.6254 56.262 18.6254" stroke="black" stroke-width="3" stroke-linecap="round"/>
</svg>
