<svg width="73" height="63" viewBox="0 0 73 63" fill="none" xmlns="http://www.w3.org/2000/svg">
<path d="M1.6875 10.3641C1.6875 8.00837 2.66292 6.71547 3.92432 4.82337C5.05288 3.13052 6.11708 3.31747 7.74127 2.44291C9.77618 1.34719 12.769 4.7516 12.769 6.67029" stroke="black" stroke-width="3" stroke-linecap="round"/>
<path d="M1.6875 11.1029C3.41264 11.1029 5.03164 11.3179 6.53052 10.3641C7.79891 9.55695 10.0062 9.08007 11.4761 9.46117C12.288 9.67164 18.6342 10.409 17.2016 11.8416" stroke="black" stroke-width="3" stroke-linecap="round"/>
<path d="M12.769 5.93153C15.8927 3.93237 20.5486 4.9321 23.317 7.40906C24.3705 8.3517 25.6375 8.6053 25.6974 10.282C25.7466 11.6598 25.6974 13.0488 25.6974 14.4273C25.6974 17.1939 24.7373 20.3162 25.3486 23.0668C25.5992 24.1948 26.3904 25.2854 26.6209 26.5759C26.9394 28.3593 27.617 29.7538 28.2831 31.4189" stroke="black" stroke-width="3" stroke-linecap="round"/>
<path d="M19.418 14.4273C19.418 20.9838 23.8506 26.9004 23.8506 33.2658" stroke="black" stroke-width="3" stroke-linecap="round"/>
<path d="M31.6073 30.3108C34.1601 28.3769 36.9223 27.5707 40.1031 27.0684C42.8318 26.6376 44.9147 25.8782 47.7165 25.8782C56.3547 25.8782 62.57 35.101 69.7974 38.5808C72.6357 39.9474 69.6788 42.725 68.3404 44.5525C67.3902 45.8498 66.6571 47.6718 64.8107 47.6718C63.1099 47.6718 61.9745 48.6884 60.4192 48.7799C59.7509 48.8192 60.0742 50.7298 60.0293 51.2014C59.8639 52.9384 59.311 54.4179 59.311 56.2496C59.311 57.5835 59.311 58.9174 59.311 60.2513C59.311 62.9008 59.3243 60.0245 59.311 59.0405C59.2859 57.1818 58.4337 52.8179 56.5612 51.7965C56.2109 51.6055 55.6115 51.7625 55.2273 51.7144C54.2187 51.5884 54.3283 51.0494 53.7703 50.4216C52.9325 49.4791 53.4009 47.4189 53.4009 46.1942C53.4009 44.9096 53.6789 44.3473 52.2928 44.3473C50.9219 44.3473 49.7174 44.359 48.3937 44.7372C45.2091 45.6471 46.3826 49.4319 46.3826 52.1044C46.3826 53.5045 44.5771 53.9513 43.2634 53.9513C41.5133 53.9513 41.9501 52.8597 41.9501 51.3656C41.9501 49.4532 42.0143 48.4484 42.894 46.7688C43.8087 45.0227 43.5713 45.0861 41.6628 45.0861C39.1575 45.0861 39.3644 47.6945 39.3644 49.5187C39.3644 52.3797 35.5146 50.7272 35.0139 48.7799C34.5825 47.1023 33.8236 45.7365 33.8236 43.9779C33.8236 42.512 34.7456 42.3377 32.8797 41.8437C31.3976 41.4514 30.6493 40.4002 29.391 39.7711C28.4335 39.2923 26.5642 39.14 25.7793 38.3551C25.4711 38.0469 25.308 35.3517 25.3484 34.887C25.4805 33.3679 27.1737 31.5662 28.6523 32.1577" stroke="black" stroke-width="3" stroke-linecap="round"/>
</svg>
