<svg width="52" height="86" viewBox="0 0 52 86" fill="none" xmlns="http://www.w3.org/2000/svg">
<path d="M31.8065 2.15622C37.4127 4.503 43.9236 4.89952 48.0593 9.9543C51.8181 14.5483 47.7552 19.147 43.8935 21.7951C41.8146 23.2206 39.6269 24.4616 37.5319 25.8583C35.17 27.4329 33.1352 29.4857 30.5341 30.6808C26.8523 32.3724 23.6236 34.0843 20.5198 36.7551C16.9723 39.8075 13.8131 43.8705 15.0201 48.6984C15.3657 50.0811 16.6397 50.873 16.9901 52.187C17.4505 53.9136 17.9153 55.601 18.5908 57.2763C21.1615 63.6518 15.228 65.4568 10.9158 68.4809C8.20269 70.3836 5.0628 71.9358 3.81547 75.294C2.8988 77.7619 2.25586 81.5297 2.25586 84.1591" stroke="black" stroke-width="3" stroke-linecap="round"/>
</svg>
