<svg width="44" height="45" fill="none" xmlns="http://www.w3.org/2000/svg"><g clip-path="url(#a)"><path d="M9.654 18.31a13.255 13.255 0 0 1 4.73-6.6A12.78 12.78 0 0 1 22 9.205c3.098 0 5.9 1.125 8.1 2.967l6.402-6.546C32.6 2.147 27.6 0 22 0 13.328 0 5.863 5.059 2.273 12.469l7.381 5.84z" fill="#EA4335"/><path d="M29.407 33.774c-1.999 1.319-4.536 2.022-7.407 2.022a12.78 12.78 0 0 1-7.59-2.488 13.252 13.252 0 0 1-4.736-6.555l-7.406 5.75a22.262 22.262 0 0 0 8.117 9.136A21.574 21.574 0 0 0 22 45c5.377 0 10.514-1.956 14.362-5.625l-6.954-5.6h-.001z" fill="#34A853"/><path d="M36.362 39.375C40.386 35.535 43 29.82 43 22.5c0-1.331-.2-2.762-.499-4.091H22v8.694h11.8c-.582 2.923-2.146 5.186-4.391 6.671l6.953 5.601z" fill="#4A90E2"/><path d="M9.675 26.753A13.627 13.627 0 0 1 9 22.5c0-1.466.23-2.874.654-4.19l-7.38-5.841A22.796 22.796 0 0 0 0 22.5c0 3.6.816 6.994 2.268 10.003l7.407-5.75z" fill="#FBBC05"/></g><defs><clipPath id="a"><path fill="#fff" d="M0 0h44v45H0z"/></clipPath></defs></svg>